

<!--<?xml version="1.0" encoding="iso-8859-1"?>-->
<!-- Generator: Adobe Illustrator 19.1.0, SVG Export Plug-In . SVG Version: 6.00 Build 0)  -->
<svg enable-background="new 0 0 65 65" version="1.1" viewBox="0 0 65 65" xml:space="preserve" xmlns="http://www.w3.org/2000/svg">
<g>
	<g>
		<path d="M32.5,0C14.58,0,0,14.579,0,32.5S14.58,65,32.5,65S65,50.421,65,32.5S50.42,0,32.5,0z M32.5,61C16.785,61,4,48.215,4,32.5    S16.785,4,32.5,4S61,16.785,61,32.5S48.215,61,32.5,61z"/>
		<path d="m31.862 36.948c1.104 0 2-0.94301 2-2.1049v-17.892c0-1.1619-0.896-2.1049-2-2.1049s-2 0.94301-2 2.1049v17.892c0 1.163 0.896 2.1049 2 2.1049z"/>
      <circle transform="scale(-1)" cx="-31.916" cy="-47.909" r="3.345"/>
   </g>
</g>
<g>
</g>
<g>
</g>
<g>
</g>
<g>
</g>
<g>
</g>
<g>
</g>
<g>
</g>
<g>
</g>
<g>
</g>
<g>
</g>
<g>
</g>
<g>
</g>
<g>
</g>
<g>
</g>
<g>
</g>
</svg>
